<svg xmlns="http://www.w3.org/2000/svg" viewBox="0 0 648 648"><defs><style>.a{fill:#fff;stroke:#fff;stroke-miterlimit:10;stroke-width:0.84px;}.b{fill:#62459c;}</style></defs><rect class="a" width="648" height="648"/><path class="b" d="M417.18,326.48V490.85c-15.16,9.79-50.8,18.08-80.36,18.08-92.49,0-131.92-71.56-131.92-189.83,0-112.23,47.77-177,126.61-177,44.73,0,79.6,21.09,113,62.52l66.72-49.72C457.36,81.07,389.89,64.5,332.27,64.5,227.65,64.5,110.14,130,110.14,325.13c0,174.76,85.67,258.37,222.89,258.37,70.5,0,134.94-19.59,176.64-48.21V326.48Zm-87.64,54.14s51.9-40.29,51.9-80.21c0-36.33-46.05-39.27-51.9,0-5.86-39.27-51.9-36.33-51.9,4.72s51.9,75.49,51.9,75.49"/><path class="b" d="M556.64,154.13a13.25,13.25,0,1,1-13.21-12.9A13,13,0,0,1,556.64,154.13Zm-23.2,0a10,10,0,0,0,10.07,10.3,9.88,9.88,0,0,0,9.83-10.22c0-5.74-4.17-10.38-9.91-10.38A10,10,0,0,0,533.44,154.13Zm7.94,6.76h-3V148a25.78,25.78,0,0,1,5-.4,8,8,0,0,1,4.48,1,3.56,3.56,0,0,1,1.26,2.83,3.32,3.32,0,0,1-2.67,3v.15c1.25.48,2,1.42,2.36,3.15a9.57,9.57,0,0,0,.94,3.22h-3.23a11.37,11.37,0,0,1-1-3.14c-.23-1.42-1-2.05-2.67-2.05h-1.42Zm.08-7.31h1.42c1.65,0,3-.55,3-1.89,0-1.18-.87-2-2.76-2a7.25,7.25,0,0,0-1.65.15Z"/></svg>
